<svg xmlns="http://www.w3.org/2000/svg" viewBox="0 0 400.41 241.8"><defs><style>.cls-1{isolation:isolate;}.cls-2{mix-blend-mode:multiply;}.cls-3{fill:#f9dc3e;}</style></defs><g class="cls-1"><g id="Layer_1" data-name="Layer 1"><g class="cls-2"><path d="M65.36,182.18a50,50,0,0,1,8.68-.76,205.16,205.16,0,0,1,26.8,1.84,222.58,222.58,0,0,1,26.59,5.1c.28.14,1.11.51,2.49,1.09a11,11,0,0,0,2.5.86c.87.15,1.7-.36,2.49-1.52a23.47,23.47,0,0,0,1.63-2.6c-.15-1.88-.25-4-.33-6.29s-.21-4.71-.43-7.16-.51-4.89-.87-7.27a35.43,35.43,0,0,0-1.62-6.62q-.22-.43-.87-1.95c-.44-1-.73-1.67-.87-2a8.18,8.18,0,0,1-.87-2.28q-.44-1.62-.87-3.36c-.29-1.16-.54-2.21-.76-3.15a11.29,11.29,0,0,1-.32-1.84,18.56,18.56,0,0,1-.22-5.1,61.1,61.1,0,0,0,.11-6.18,10.77,10.77,0,0,0-1.41-5.21q-1.3-2.17-4.56-2.17c-.29,0-1.08.07-2.38.21l-.87,1.74c0,.15-.4.43-1.2.87L115.38,130c-1.08.58-2.17,1.12-3.25,1.63a15.43,15.43,0,0,1-2.5,1,24.08,24.08,0,0,1-3.36.87c-2,.43-3.51.8-4.67,1.08h-1.08l-2-1.95a1.62,1.62,0,0,1-.43,2.39,11.57,11.57,0,0,1-3.25,1.84A26.92,26.92,0,0,1,91,138a15,15,0,0,1-2.6.43h-.44c-.14-.29-.36-.76-.65-1.41a4,4,0,0,1-.43-1.41,3.4,3.4,0,0,1-1,3.15,7.41,7.41,0,0,1-2.93,1.41,15.17,15.17,0,0,1-3.69.43H76a28,28,0,0,1-5.75-1.52q-4.68-1.51-9.77-3.58a59.9,59.9,0,0,1-9-4.45c-2.61-1.59-3.69-3-3.26-4.34a11.28,11.28,0,0,1-1.41.55,5.36,5.36,0,0,1-1.41.32H44.1c-.73-.29-2-.87-3.91-1.74v-1.08a7.77,7.77,0,0,1-3.9-.87,9.17,9.17,0,0,1-2.61-2.17,20.15,20.15,0,0,1-1.95-2.82,13.45,13.45,0,0,0-2.17-2.82h-1.3A4.28,4.28,0,0,1,26,113.71a9.6,9.6,0,0,1-.54-3.25,17,17,0,0,1,.32-3.37,14.84,14.84,0,0,0,.33-2.93,4.71,4.71,0,0,0-1.63.22c-.36.15-.83-.22-1.41-1.08a24.63,24.63,0,0,1-.87-2.61c-.43-1.44-.72-2.53-.87-3.25V97a5.82,5.82,0,0,1,1.52-3,6,6,0,0,0,1.52-3.48,5.06,5.06,0,0,0-.65-1.3,3.81,3.81,0,0,1-.65-1.52c0-.29.29-.68.87-1.19a2.44,2.44,0,0,1,1.3-.76q-1.74.65-1.95-.54a10.64,10.64,0,0,1-.22-1.85,9.62,9.62,0,0,1,.22-2.6c.14-.44.72-.65,1.73-.65a3.19,3.19,0,0,1,.11-.65,3.19,3.19,0,0,0,.11-.65,3.11,3.11,0,0,0-.43-1,2.77,2.77,0,0,1-.44-1q-.44-1.08-2.17-4.55a12.09,12.09,0,0,1,.22-1.41q.21-1.2.54-2.61c.22-.94.47-1.88.76-2.82s.51-1.63.65-2.06c.14-.87.44-2.1.87-3.69s.9-3.18,1.41-4.77a18.15,18.15,0,0,1,1.84-4.13c.73-1.15,1.45-1.73,2.17-1.73a19.33,19.33,0,0,0-.21-3,4.47,4.47,0,0,1,.86-3,27.55,27.55,0,0,0,1.63-2.39l3-4.66c1.09-1.66,2.13-3.22,3.15-4.67s1.59-2.31,1.73-2.6A17.92,17.92,0,0,0,43.34,26c1.08-1.3,2.28-2.63,3.58-4a25.31,25.31,0,0,1,4-3.47c1.38-.94,2.57-1.12,3.58-.54q1.52-3.48,6.41-6.08a44.85,44.85,0,0,1,10.74-4A81.87,81.87,0,0,1,83.48,6a51.64,51.64,0,0,1,9.88-.11c.87,0,2.28.08,4.23.22s3,.22,3.14.22a36,36,0,0,1,4.35.87c1.73.43,2.6.72,2.6.86V9.12c.72,0,2.24,0,4.56.11s4.7.21,7.16.43a38.14,38.14,0,0,1,6.51,1.09c1.88.5,2.74,1.19,2.6,2.06a7.18,7.18,0,0,1,.87,4.23c-.15,1.52-.36,3-.65,4.56s-.51,2.93-.65,4.23a4.83,4.83,0,0,0,.86,3.47c2.61-2,4.63-3.61,6.08-4.77s3.47-2.75,6.08-4.78q.21.22,2.28-2.49t4.55-6Q150.42,8,152.6,5.43C154,3.69,154.77,2.9,154.77,3a24.72,24.72,0,0,1-1.2,9.77,64.63,64.63,0,0,1-3.79,9.55q-2.17,4.34-3.91,7.16a14.11,14.11,0,0,1-1.73,2.6,6.52,6.52,0,0,1-.76,2c-.51,1-1.09,2.1-1.74,3.26a27.73,27.73,0,0,1-1.95,3c-.65.86-1.2,1.23-1.63,1.08A10.17,10.17,0,0,1,135,40c-1.3-.79-2.64-1.7-4-2.71s-2.72-1.95-4-2.82l-2.6-1.74a7.61,7.61,0,0,1-.87-1.41c-.43-.79-.87-1.63-1.3-2.49a20.08,20.08,0,0,0-1.41-2.39c-.51-.72-.84-1.09-1-1.09s-.9-.5-1.84-1.08-2-1.27-3-2.06L112,20.08c-.87-.65-1.3-1.12-1.3-1.41v-.44a6.79,6.79,0,0,1,.65-.54c.29-.22.43-.4.43-.54a.49.49,0,0,0-.11-.33.44.44,0,0,1-.11-.32.44.44,0,0,1-.32-.11.45.45,0,0,0-.33-.11c-.14.15-.5.47-1.08,1s-.94.76-1.09.76c-1.59.29-2.24.5-2,.65s.44.07.44-.22c-.15,0-.44-.25-.87-.76s-.87-1.05-1.3-1.63a20.7,20.7,0,0,1-1.2-1.73c-.36-.58-.62-.87-.76-.87l-4.56-1.3L92.27,8.68a5.66,5.66,0,0,1-5.1,1,24.15,24.15,0,0,0-6.4-.76A5.05,5.05,0,0,1,78,10.31a41.4,41.4,0,0,1-4.56.87,38.57,38.57,0,0,0-4.45.87c-1.37.36-2.13.83-2.27,1.41a8,8,0,0,1-2.93,3.15c-1.67,1.23-3,2.27-4,3.14a14,14,0,0,0-2.28,2.39c-.5.72-1,1.41-1.41,2.06s-.86,1.3-1.3,1.95a9.85,9.85,0,0,1-1.95,2.06q-3.69,8-6,13.24a81.71,81.71,0,0,0-3.58,9.66,55.53,55.53,0,0,0-1.84,8.79,85.87,85.87,0,0,0-.55,10.63,42.52,42.52,0,0,0,3.26,15.3,81.57,81.57,0,0,0,8.46,16.06,76.05,76.05,0,0,0,11.61,13.56,34.26,34.26,0,0,0,12.7,7.81,19.36,19.36,0,0,1,2.92.76c1.67.51,3.51,1.09,5.54,1.74s3.87,1.23,5.53,1.73,2.64.84,2.93,1h1.52a5.35,5.35,0,0,0,1.74-.65,5,5,0,0,1,1.73-.65H101a5.45,5.45,0,0,1,1.41.65,4.56,4.56,0,0,0,1.63.65,10.53,10.53,0,0,0,5.21-1.63,37.61,37.61,0,0,0,5.42-3.8,39.56,39.56,0,0,0,4.67-4.55c1.37-1.59,2.42-2.9,3.15-3.91v-4.77a15.56,15.56,0,0,1,.65-5.21,15,15,0,0,0,.65-5h-11.5c1.59-2,2.85-3.65,3.79-4.88s2.21-2.86,3.8-4.89c2.89-.57,4.34-.94,4.34-1.08,0-.44.4-.83,1.19-1.2s1.63-.72,2.5-1.08,1.7-.72,2.5-1.09,1.19-.68,1.19-1A2.91,2.91,0,0,1,132.63,82a9.37,9.37,0,0,1,2.5-1.41,21.72,21.72,0,0,1,2.82-.87,10.08,10.08,0,0,0,2.28-.76c.14-.14-.36-.32-1.52-.54s-1.66-.4-1.52-.54h1.09c.43,0,1.26-.54,2.49-1.63a41.7,41.7,0,0,0,3.58-3.58q1.74-2,3-3.36c.87-.94,1.23-1.27,1.09-1-1.31,2.6-2,7.13-2.17,13.56a158.51,158.51,0,0,0,1.08,21.27q1.31,11.61,3.58,23.22a123,123,0,0,0,5.32,19.64,8.19,8.19,0,0,1,.76,3.14c.07,1.23.14,2.5.21,3.8a18.74,18.74,0,0,0,.55,3.69,7.5,7.5,0,0,0,1.51,3V173.6a23.41,23.41,0,0,1-.32,3.26c-.22,1.44-.4,2.17-.54,2.17l-2.17,1.3a10.31,10.31,0,0,1,.21,2.61,14.81,14.81,0,0,1-.21,3,8.52,8.52,0,0,1-1.52,1.63c-.87.79-1.38,1.27-1.52,1.41v.87a51.09,51.09,0,0,1-5.64,5.64,27.55,27.55,0,0,1-5,3.26,44.32,44.32,0,0,1-5.86,2.38q-3.25,1.09-8,2.83a16.4,16.4,0,0,1-2.5.43,14.81,14.81,0,0,0-2.49.43h-2.17l-16.93-4.77q-1.74.43-4.12-1.19a13.71,13.71,0,0,0-4.12-2.07q-4.35-1.29-9.77-2.38t-11.18-2.06q-5.74-1-11.28-1.52t-10.09-.55c-1.45,0-2.71,0-3.8.11l-3.25.22a23.44,23.44,0,0,0-3.58.54c-1.3.29-2.82.65-4.56,1.09q-1.3.43-4.45,1.84T27.61,197c-2.47,1-4.78,2-6.95,2.93S17,201.6,16.1,202a33.07,33.07,0,0,0-7,4.56,10.84,10.84,0,0,1-7,2.82c0-.73.69-1.66,2.06-2.82S7,204.24,8.73,203s3.4-2.32,5-3.26,2.68-1.55,3.25-1.84q5.43-2.61,10.2-5t9.44-4.34q4.66-2,9.55-3.47A91.45,91.45,0,0,1,56.9,182.5,30.61,30.61,0,0,0,65.36,182.18ZM24.79,66.84c0,.43.14.58.43.43s.43-.28.43-.43a.69.69,0,0,0-.43-.65C24.93,66.05,24.79,66.26,24.79,66.84Zm2.82,42.53c0,.58.21.87.65.87q1.08,0,1.08-.87a1,1,0,0,0-1.08-1.08C27.82,108.29,27.61,108.65,27.61,109.37Zm3-58.59c0,.73.22,1.09.65,1.09s.66-.36.66-1.09-.22-1.3-.66-1.3S30.64,49.91,30.64,50.78Zm.87.87c0,.73.22,1.09.65,1.09s.65-.36.65-1.09-.21-1.3-.65-1.3S31.51,50.78,31.51,51.65ZM50,28.21c-.44,0-.58.15-.44.44s.29.43.44.43a.69.69,0,0,0,.65-.43C50.75,28.36,50.53,28.21,50,28.21Zm.76-7.92c-.8.95-.91,1.41-.33,1.41s1-.46,1.85-1.41.9-1.41.32-1.41S51.51,19.35,50.72,20.29Zm13.34-7c0,.73.29,1.09.87,1.09.43,0,.65-.36.65-1.09s-.22-1.08-.65-1.08Q64.06,12.16,64.06,13.24Zm2.17,171c0,.57.22.87.65.87a.87.87,0,0,0,0-1.74C66.45,183.37,66.23,183.66,66.23,184.24ZM79,129.77c0,.73.21,1.09.65,1.09s.65-.36.65-1.09-.22-1.3-.65-1.3S79,128.9,79,129.77Zm52.73,0c0,.73.21,1.09.65,1.09s.65-.36.65-1.09-.22-1.3-.65-1.3S131.77,128.9,131.77,129.77Zm7.48,54.79a11.94,11.94,0,0,0-.11,1.63l-2.38,1.95c0-.58.54-1.37,1.62-2.38a10.41,10.41,0,0,0,2.07-2.39C139.72,183.66,139.32,184.05,139.25,184.56Zm8.36,2.5c0,.72.21,1.08.65,1.08s.65-.36.65-1.08-.22-1.09-.65-1.09S147.61,186.33,147.61,187.06Z" transform="translate(0 -1.03)"/><path d="M167.57,138.45a4.29,4.29,0,0,1,.54-1.19,4.34,4.34,0,0,0,.55-1.2,14.66,14.66,0,0,0-.55-2.38,13.94,13.94,0,0,1-.54-2.39V130.2c0-1.3.36-2,1.09-2.17-.73-.43-1.41-1.66-2.07-3.68a16.62,16.62,0,0,1-1-4.56,32.63,32.63,0,0,1,2.06-11.29,33.93,33.93,0,0,0,2.06-11.71,24,24,0,0,0-.54-5.64,21.89,21.89,0,0,1-.54-5.21,23.33,23.33,0,0,1,.21-3.37,7.94,7.94,0,0,1,1.74-3.36,1.67,1.67,0,0,1-1.19-1.41,15.12,15.12,0,0,1-.11-1.85,7,7,0,0,0-.22-1.84c-.15-.51-.58-.76-1.3-.76a18.57,18.57,0,0,0-8,1.74,18.56,18.56,0,0,1-8,1.73h-2.6a3.29,3.29,0,0,1-2.61-1.3c.58.15,1.7-.22,3.37-1.08s3.61-2,5.85-3.48,4.6-3,7.06-4.77,4.8-3.36,7-4.88,4.23-2.79,6-3.8A9.14,9.14,0,0,1,179.51,56a5.06,5.06,0,0,1,1.62.54l1.63.76c.58-.14.83-.07.76.22a1.89,1.89,0,0,1-.54.87,1.89,1.89,0,0,0-.54.87q-.12.44.75,0a2.41,2.41,0,0,0,1.41-1,3.08,3.08,0,0,1,1-1c.44.29.62.55.54.76a1.19,1.19,0,0,1-.21.44.4.4,0,0,0-.11.32h.87q-.87,3.48-1.31,5a13,13,0,0,0-.43,1.74,55.4,55.4,0,0,0,9.44-4Q199,59,203.7,56.75a72.37,72.37,0,0,1,9.77-3.91,35.93,35.93,0,0,1,10.95-1.62,20.74,20.74,0,0,1,5.32.65,20.26,20.26,0,0,0,5.1.65,10,10,0,0,0,1.09,4.56A10.52,10.52,0,0,1,237,61.85a22.55,22.55,0,0,1-5.21,14.21,78.58,78.58,0,0,1-11.28,11.72q-6.08,5.1-10.63,8.46t-3.26,4.45a141,141,0,0,1,11.83,10.64q7,6.94,15,15.19T249.71,143q8.34,8.24,15.73,14.75a116.5,116.5,0,0,0,13,10.2q5.64,3.69,8.46,2.39l18.45,7.81c.28,0,1.08,0,2.38-.11s2.68-.18,4.13-.32a39.87,39.87,0,0,1,4.12-.22h2.39a9.39,9.39,0,0,1,1.62.54,9.58,9.58,0,0,0,1.63.55h.87a7.72,7.72,0,0,0,4.88-2.07,5.93,5.93,0,0,1,4.88-1.62,6.38,6.38,0,0,0,.76-1.31c.36-.72.73-1.51,1.09-2.38s.68-1.74,1-2.61a6.88,6.88,0,0,0,.44-2,6.21,6.21,0,0,0-.33-1.52c-.21-.72-.18-1.23.11-1.52q3.46-5,6.4-9.11t6.19-4.12h.87c.28,1.73.46,3.11.54,4.12s.11,2.31.11,3.9q0,6.51-5.54,11.94a51.45,51.45,0,0,1-13.13,9.22,84,84,0,0,1-15.62,6,52.72,52.72,0,0,1-13,2.17h-4.77a5.93,5.93,0,0,1-2.07-1.19,5.77,5.77,0,0,0-2.06-1.2c-.14,0-.54,0-1.19.11a21.48,21.48,0,0,1-2.28.11h-3.47a116.28,116.28,0,0,1-20.72-9.77,260,260,0,0,1-21.81-14.21q-10.63-7.71-19.64-15.51a128.93,128.93,0,0,1-13.78-13.46q-1.51-1.72-4.23-4.34a17.82,17.82,0,0,0-4.67-3.47,8.17,8.17,0,0,1-3.47-2,30.93,30.93,0,0,1-2.49-2.82,15.34,15.34,0,0,0-2.61-2.61,5.71,5.71,0,0,0-3.58-1.08h-2.6a6.16,6.16,0,0,0-1.09,3.25v3.26a46.48,46.48,0,0,0,.54,7.16,46.47,46.47,0,0,1,.55,7.16v3.47q-4.12,3.25-8.14,6.51a14.24,14.24,0,0,1-9.22,3.26,10.88,10.88,0,0,0-.33-3c-.22-.72-.43-1.38-.65-1.95a14.49,14.49,0,0,1-.54-1.74,10,10,0,0,1-.22-2.39ZM186,92.77A15.27,15.27,0,0,0,187.75,99h3.47a19.48,19.48,0,0,0,6.84-1.09,30.17,30.17,0,0,0,5.53-2.71q2.61-1.64,5.32-3.58a36.89,36.89,0,0,1,6-3.47l3-8.25a22.44,22.44,0,0,0,1.52-7.81q0-12.81-11.28-12.8A17.83,17.83,0,0,0,199,61.63a24.33,24.33,0,0,0-7.17,6.4,30.47,30.47,0,0,0-4.66,9,32.58,32.58,0,0,0-1.63,10.2C185.58,88.25,185.72,90.1,186,92.77Z" transform="translate(0 -1.03)"/><path d="M255,133.89a3.09,3.09,0,0,0,0-1.62,4.48,4.48,0,0,0-.65-1.09l-.87-1.08a2.58,2.58,0,0,1-.43-1.63,1.29,1.29,0,0,1,.32-.65c.22-.29.4-.44.54-.44-1.3-.43-2-1-2.06-1.84s-.11-1.77-.11-2.93a27.59,27.59,0,0,1,.66-3.69q.65-3,1.62-7.16c.65-2.75,1.45-5.6,2.39-8.57s1.88-5.61,2.82-7.92A28,28,0,0,1,262,90c.87-1.23,1.66-1.48,2.39-.76a14.87,14.87,0,0,1,1.74-4.66c1-2,2.09-3.94,3.25-6s2.17-4,3-5.86a11.46,11.46,0,0,0,1.3-4.34,12.17,12.17,0,0,0-.11-1.3.88.88,0,0,0-1-.87,25.56,25.56,0,0,0-9.77,2.06,26.92,26.92,0,0,1-10.41,2.06c-1.16,0-2.39,0-3.69-.11a3.63,3.63,0,0,1-3-1.84,8.93,8.93,0,0,0,3.9-2.17Q252,64.24,254.37,62a55.63,55.63,0,0,1,4.66-4,7,7,0,0,1,4-1.73,16.69,16.69,0,0,1,4.23.54,17.45,17.45,0,0,0,4.45.54,22,22,0,0,0,4.66-.76c2.1-.5,4.31-1.12,6.62-1.84s4.52-1.45,6.62-2.17,3.72-1.3,4.88-1.74c.29-.14.94-.5,2-1.08s1.66-.94,1.95-1.09h1.08l-6.29,7.6c-.58-.44-1.56.4-2.93,2.49s-2.93,4.81-4.66,8.14-3.58,7-5.54,11.18-3.69,8-5.21,11.71-2.78,6.91-3.79,9.66a23.59,23.59,0,0,0-1.52,5c0,1,.36,1.52,1.08,1.52s1.09.43,1.09,1.3a11.3,11.3,0,0,1-.54,3.58,15.22,15.22,0,0,0-.55,4.67,6.91,6.91,0,0,0,2.93,5.42A34.67,34.67,0,0,0,280,125c2.32,1.16,4.45,2.17,6.41,3s2.93,1.6,2.93,2.17a4.8,4.8,0,0,1-.11.76,4.59,4.59,0,0,0-.11,1,12.22,12.22,0,0,1-1.74,1.3c-.87.58-1.81,1.23-2.82,2s-1.95,1.41-2.82,2.06a8.11,8.11,0,0,1-1.95,1.19,10.57,10.57,0,0,1-2.61.43,5.3,5.3,0,0,0-2.6.66,11.32,11.32,0,0,0-2.06,2.17,12.88,12.88,0,0,1-2.06,2.17H270a11,11,0,0,1-4.23-.76,8.71,8.71,0,0,0-4.66-.33Zm-.87-5.2q0,1.08.87,1.08c.43,0,.65-.36.65-1.08,0-.87-.22-1.31-.65-1.31C254.44,127.38,254.15,127.82,254.15,128.69Zm1.09-66c0,.72.21,1.08.65,1.08s.87-.36.87-1.08-.3-1.09-.87-1.09S255.24,62,255.24,62.72Zm0,43c0,.73.21,1.09.65,1.09s.87-.36.87-1.09-.3-1.3-.87-1.3S255.24,104.82,255.24,105.68Zm5.2-46c0,.73.22,1.08.66,1.08a1,1,0,0,0,1.08-1.08c0-.87-.36-1.3-1.08-1.3C260.66,58.38,260.44,58.81,260.44,59.68Zm2.93-27.56a44.93,44.93,0,0,1,4.23-3.91h2a2.5,2.5,0,0,0,1-.54,2.74,2.74,0,0,1,1-.54,4,4,0,0,1,2.17,1.52,4.3,4.3,0,0,1,1.09,1.73v9.77c0,.43-.33.87-1,1.3a9.28,9.28,0,0,1-2.28,1.09,17.67,17.67,0,0,1-2.49.65,13.93,13.93,0,0,1-1.42.21,6.19,6.19,0,0,1-4.23-1.95,5.68,5.68,0,0,1-2.06-4.12A7.31,7.31,0,0,1,263.37,32.12Zm7.16-22.89a13.43,13.43,0,0,1,2.28-1.41c.87-.44,1.7-.9,2.5-1.41A5.88,5.88,0,0,0,276.94,5a2.69,2.69,0,0,0,.43-1,2.53,2.53,0,0,1,.43-1h.66A4.59,4.59,0,0,1,281,4.56,39.41,39.41,0,0,1,284.21,8a42.11,42.11,0,0,1,2.82,3.8,6.12,6.12,0,0,1,1.19,2.71,2.25,2.25,0,0,1-1,1.85,15.91,15.91,0,0,1-2.17,1.41,16.69,16.69,0,0,1-2.38,1.08c-.8.3-1.34.51-1.63.65h-.43c-3.77,0-6.55-.54-8.36-1.62s-2.71-3.51-2.71-7.27C269.56,10.2,269.88,9.74,270.53,9.23Zm.11,132.48a1,1,0,0,0,1.09,1.08c.43,0,.65-.36.65-1.08,0-.87-.22-1.31-.65-1.31C271,140.4,270.64,140.84,270.64,141.71Zm4.13-16.5a1,1,0,0,0,1.08,1.09c.43,0,.65-.36.65-1.09s-.22-1.08-.65-1.08A1,1,0,0,0,274.77,125.21Zm9.11-98.73,8.25-4.34c.43-.14.93.32,1.52,1.41a25.17,25.17,0,0,1,1.62,4q.76,2.4,1.41,4.78a14.92,14.92,0,0,1,.65,3.25c0,1-.86,1.92-2.6,2.72a11.33,11.33,0,0,1-3.47,1.19,5.66,5.66,0,0,1-3.58-1.09,7.87,7.87,0,0,1-2.28-2.82,12.63,12.63,0,0,1-1.19-3.79,24.22,24.22,0,0,1-.33-3.8Zm13.24,97.32a43.1,43.1,0,0,0,4.23-2.82c1.23-.94,2.46-1.91,3.69-2.93s2.71-2.31,4.45-3.9a4.59,4.59,0,0,1,1.62-1,9.22,9.22,0,0,1,1.63-.11h1.09l-2.07,2.06q-1.41,1.42-3.14,3t-3.15,3a15.88,15.88,0,0,1-2.06,1.84,37,37,0,0,1-7.49,5.21,18.39,18.39,0,0,1-3.58,1.52h-1.08v-2.39Q294.73,125.22,297.12,123.8Z" transform="translate(0 -1.03)"/><path d="M324.24,200.08a5.23,5.23,0,0,1-1.74-2.71,5.26,5.26,0,0,0-1.73-2.72c-.15,0-.29-.4-.44-1.19s-.29-1.63-.43-2.5-.29-1.66-.44-2.38a11.56,11.56,0,0,1-.21-1.3c-1.16-1.6-1.88-2.57-2.17-2.93a3.35,3.35,0,0,0-.76-.76,8.83,8.83,0,0,0-1-.55,22.44,22.44,0,0,1-2.82-2.06,22.86,22.86,0,0,0-.65-4,22.78,22.78,0,0,1-.65-4,5.25,5.25,0,0,0-1.09-1.95,5.32,5.32,0,0,1-1.08-1.95,3.55,3.55,0,0,1-.22-1.74v-3.25c0-1,0-2,.11-3s.11-1.67.11-2-.08-.66-.22-1.52-.25-1.81-.32-2.82-.19-1.92-.33-2.72a12.09,12.09,0,0,1-.22-1.41,20.38,20.38,0,0,1,.22-2.06q.21-1.62.33-3.36c.07-1.16.18-2.21.32-3.15a17.19,17.19,0,0,0,.22-1.84V139.1c.14-.29.43-.79.87-1.52a3.74,3.74,0,0,0,.65-1.73,6.21,6.21,0,0,0-.33-1.52,7,7,0,0,1-.32-1.3,92.24,92.24,0,0,1,4.77-28.87q4.77-14.53,16.71-31.89a75.38,75.38,0,0,0-12.59,1.19,62.42,62.42,0,0,0-7.59,2c-1.88.65-3.26,1.16-4.12,1.52a2.07,2.07,0,0,1-2.17-.11A29.11,29.11,0,0,1,309.16,73q2.93-2.28,6.29-4.56a73.69,73.69,0,0,1,6.62-4,21.69,21.69,0,0,1,5.42-2.17,5.48,5.48,0,0,1,1.09-.65,20.67,20.67,0,0,1,2.06-.87c.79-.28,1.52-.57,2.17-.86a4.12,4.12,0,0,1,1.41-.44c2-.43,3.47-.76,4.34-1a41.71,41.71,0,0,0,4.12-1.41,9.39,9.39,0,0,0,1.2-.22l2.06-.44a10.31,10.31,0,0,1,1.95-.21,1.79,1.79,0,0,1,1.09.21,9.91,9.91,0,0,0-1.52,2.28A31.74,31.74,0,0,0,345.94,62a15.21,15.21,0,0,0-.87,2.71c-.14.73,0,.87.43.43,1.31-1,2.1-1.48,2.39-1.41s.4.33.33.76-.15.87-.22,1.31.25.58,1,.43c.29,0,.57-.33.86-1a4.85,4.85,0,0,0,.44-1.19,31.55,31.55,0,0,1,6.07-3.91,16,16,0,0,1,7.17-2.17L365.25,59h2.61a14.87,14.87,0,0,0,4.34-.54,13.89,13.89,0,0,1,4.12-.55h1.73a.92.92,0,0,1,.55.11,6.26,6.26,0,0,1,.43.65,5.44,5.44,0,0,0,1.63,1.41h.65a27,27,0,0,1,14,13.24A53.65,53.65,0,0,1,400.41,94a23.6,23.6,0,0,1-.44,4.44,45.14,45.14,0,0,1-1.08,4.45c-.44,1.45-.8,2.9-1.09,4.34a10.93,10.93,0,0,0,0,4.34,50.58,50.58,0,0,1-8.57,11.4,54.21,54.21,0,0,1-9.33,7.16,68,68,0,0,1-10.53,5.1q-5.64,2.16-12.15,5a5.33,5.33,0,0,0-3-.87c-.15,0-.33.14-.55.43s-.4.44-.54.44a4.67,4.67,0,0,1-2.06,1.3,8.34,8.34,0,0,1-2.06.65,16.49,16.49,0,0,1-9.44-5.43q-4.23-4.54-7.49-8.68c-.73.44-1.3,1.49-1.74,3.15a41,41,0,0,0-1,5.1,38.28,38.28,0,0,0-.33,4.77v3c0,.29,0,1.2-.11,2.72s-.1,3.14-.1,4.88,0,3.36-.11,4.88-.11,2.5-.11,2.93l.65,4.56c0,.57,0,1.41.11,2.49s.14,2.21.22,3.37.1,2.17.1,3v1.31l6.08,30.81q-.44,2.61,1.84,6.51t5,8.14q2.71,4.23,5.1,8.35a14.8,14.8,0,0,1,2.39,7.16,6.18,6.18,0,0,0,.65,2.5,25.71,25.71,0,0,0,1.31,2.49,8.07,8.07,0,0,1,.86,1.85c.14.5,0,.76-.43.76q-1.09,0-3.58-2.93t-5.64-7.38q-3.15-4.46-6.62-9.77t-6.3-10q-2.82-4.67-4.66-7.92a18.53,18.53,0,0,1-1.85-3.69A2.09,2.09,0,0,1,324.24,200.08Zm-12.8-53.38a1,1,0,0,0,1.08,1.08c.29,0,.43-.36.43-1.08s-.14-.87-.43-.87Q311.44,145.83,311.44,146.7Zm1.08,18,.43-1.09-.43-1.08ZM314,175.12c0,.73.14,1.09.43,1.09a1.09,1.09,0,1,0,0-2.17C314.18,174,314,174.4,314,175.12ZM322.29,97c0,.58.21.87.65.87q1.08,0,1.08-.87a1,1,0,0,0-1.08-1.08C322.5,95.92,322.29,96.28,322.29,97Zm5.86-3.25c0,.72.28,1.08.86,1.08s.87-.36.87-1.08c0-.87-.29-1.3-.87-1.3S328.15,92.88,328.15,93.75ZM333,117.4q-.12.66,1.41,1.74,6.29,5,12.48,9.22a24.18,24.18,0,0,0,14,4.23,20.53,20.53,0,0,0,9.88-2.17,17.77,17.77,0,0,0,6.51-6,27.47,27.47,0,0,0,3.68-8.68,42,42,0,0,0,1.2-10.09V97.87a8.14,8.14,0,0,1-.87-1.84,8.34,8.34,0,0,1-.65-2.06V92.45a4.16,4.16,0,0,0-.54-1.2,4,4,0,0,1-.55-1.19,3.35,3.35,0,0,1,.55-1.09,3.25,3.25,0,0,0,.54-1.08v-.65a9.92,9.92,0,0,0-1.3-4.78A11.09,11.09,0,0,1,378.05,77,5.17,5.17,0,0,1,375.56,76a21.07,21.07,0,0,1-3.26-2.71,31.45,31.45,0,0,1-2.93-3.36,5.59,5.59,0,0,1-1.3-3.26,27.41,27.41,0,0,1-2.93-.21c-1.23-.15-2.57-.33-4-.55a29.24,29.24,0,0,1-4-.86c-1.23-.36-2.2-.69-2.92-1a2.44,2.44,0,0,1-.76,2,5.15,5.15,0,0,1-1.74,1c-.65.22-1.3.47-1.95.76a4,4,0,0,0-1.63,1.3A44.7,44.7,0,0,0,339,83.66a63.6,63.6,0,0,0-3.47,17.68c-.43,2.47-.94,4.74-1.52,6.84a24.77,24.77,0,0,0-.86,6.62A19.86,19.86,0,0,1,333,117.4Zm10.3,109.8a2.49,2.49,0,0,0-2.82-2.82A2.49,2.49,0,0,0,343.33,227.2Zm8-93.52a1,1,0,0,0,1.09,1.08c.29,0,.43-.36.43-1.08s-.14-1.09-.43-1.09A1,1,0,0,0,351.36,133.68Zm3-70.53a.87.87,0,1,0,.87-.87A.77.77,0,0,0,354.4,63.15Zm14.11,70.53c0,.72.21,1.08.65,1.08s.65-.36.65-1.08-.22-1.09-.65-1.09S368.51,133,368.51,133.68Zm13.89-26.26c0,.73.28,1.08.86,1.08s.87-.35.87-1.08-.29-1.3-.87-1.3S382.4,106.55,382.4,107.42Z" transform="translate(0 -1.03)"/></g><path class="cls-3" d="M63.36,180.18a50,50,0,0,1,8.68-.76,205.16,205.16,0,0,1,26.8,1.84,222.58,222.58,0,0,1,26.59,5.1c.28.14,1.11.51,2.49,1.09a11,11,0,0,0,2.5.86c.87.15,1.7-.36,2.49-1.52a23.47,23.47,0,0,0,1.63-2.6c-.15-1.88-.25-4-.33-6.29s-.21-4.71-.43-7.16-.51-4.89-.87-7.27a35.43,35.43,0,0,0-1.62-6.62q-.22-.43-.87-1.95c-.44-1-.73-1.67-.87-2a8.18,8.18,0,0,1-.87-2.28q-.44-1.62-.87-3.36c-.29-1.16-.54-2.21-.76-3.15a11.29,11.29,0,0,1-.32-1.84,18.56,18.56,0,0,1-.22-5.1,61.1,61.1,0,0,0,.11-6.18,10.77,10.77,0,0,0-1.41-5.21q-1.3-2.17-4.56-2.17c-.29,0-1.08.07-2.38.21l-.87,1.74c0,.15-.4.43-1.2.87L113.38,128c-1.08.58-2.17,1.12-3.25,1.63a15.43,15.43,0,0,1-2.5,1,24.08,24.08,0,0,1-3.36.87c-2,.43-3.51.8-4.67,1.08H98.52l-2-1.95a1.62,1.62,0,0,1-.43,2.39,11.57,11.57,0,0,1-3.25,1.84A26.92,26.92,0,0,1,89,136a15,15,0,0,1-2.6.43h-.44c-.14-.29-.36-.76-.65-1.41a4,4,0,0,1-.43-1.41,3.4,3.4,0,0,1-1,3.15,7.41,7.41,0,0,1-2.93,1.41,15.17,15.17,0,0,1-3.69.43H74a28,28,0,0,1-5.75-1.52q-4.68-1.51-9.77-3.58a59.9,59.9,0,0,1-9-4.45c-2.61-1.59-3.69-3-3.26-4.34a11.28,11.28,0,0,1-1.41.55,5.36,5.36,0,0,1-1.41.32H42.1c-.73-.29-2-.87-3.91-1.74v-1.08a7.77,7.77,0,0,1-3.9-.87,9.17,9.17,0,0,1-2.61-2.17,20.15,20.15,0,0,1-1.95-2.82,13.45,13.45,0,0,0-2.17-2.82h-1.3A4.28,4.28,0,0,1,24,111.71a9.6,9.6,0,0,1-.54-3.25,17,17,0,0,1,.32-3.37,14.84,14.84,0,0,0,.33-2.93,4.71,4.71,0,0,0-1.63.22c-.36.15-.83-.22-1.41-1.08a24.63,24.63,0,0,1-.87-2.61c-.43-1.44-.72-2.53-.87-3.25V95a5.82,5.82,0,0,1,1.52-3,6,6,0,0,0,1.52-3.48,5.06,5.06,0,0,0-.65-1.3,3.81,3.81,0,0,1-.65-1.52c0-.29.29-.68.87-1.19a2.44,2.44,0,0,1,1.3-.76q-1.74.65-1.95-.54a10.64,10.64,0,0,1-.22-1.85,9.62,9.62,0,0,1,.22-2.6c.14-.44.72-.65,1.73-.65a3.19,3.19,0,0,1,.11-.65,3.19,3.19,0,0,0,.11-.65,3.11,3.11,0,0,0-.43-1,2.77,2.77,0,0,1-.44-1q-.44-1.08-2.17-4.55a12.09,12.09,0,0,1,.22-1.41q.21-1.2.54-2.61c.22-.94.47-1.88.76-2.82s.51-1.63.65-2.06c.14-.87.44-2.1.87-3.69s.9-3.18,1.41-4.77a18.15,18.15,0,0,1,1.84-4.13c.73-1.15,1.45-1.73,2.17-1.73a19.33,19.33,0,0,0-.21-3,4.47,4.47,0,0,1,.86-3,27.55,27.55,0,0,0,1.63-2.39l3-4.66c1.09-1.66,2.13-3.22,3.15-4.67s1.59-2.31,1.73-2.6A17.92,17.92,0,0,0,41.34,24c1.08-1.3,2.28-2.63,3.58-4a25.31,25.31,0,0,1,4-3.47c1.38-.94,2.57-1.12,3.58-.54Q54,12.54,58.92,9.94a44.85,44.85,0,0,1,10.74-4A81.87,81.87,0,0,1,81.48,4a51.64,51.64,0,0,1,9.88-.11c.87,0,2.28.08,4.23.22s3,.22,3.14.22a36,36,0,0,1,4.35.87c1.73.43,2.6.72,2.6.86V7.12c.72,0,2.24,0,4.56.11s4.7.21,7.16.43a38.14,38.14,0,0,1,6.51,1.09c1.88.5,2.74,1.19,2.6,2.06a7.18,7.18,0,0,1,.87,4.23c-.15,1.52-.36,3-.65,4.56s-.51,2.93-.65,4.23a4.83,4.83,0,0,0,.86,3.47c2.61-2,4.63-3.61,6.08-4.77s3.47-2.75,6.08-4.78q.21.22,2.28-2.49t4.55-6Q148.42,6,150.6,3.43C152,1.69,152.77.9,152.77,1a24.72,24.72,0,0,1-1.2,9.77,64.63,64.63,0,0,1-3.79,9.55q-2.17,4.34-3.91,7.16a14.11,14.11,0,0,1-1.73,2.6,6.52,6.52,0,0,1-.76,1.95c-.51,1-1.09,2.1-1.74,3.26a27.73,27.73,0,0,1-1.95,3c-.65.86-1.2,1.23-1.63,1.08A10.17,10.17,0,0,1,133,38c-1.3-.79-2.64-1.7-4-2.71s-2.72-1.95-4-2.82l-2.6-1.74a7.61,7.61,0,0,1-.87-1.41c-.43-.79-.87-1.63-1.3-2.49a20.08,20.08,0,0,0-1.41-2.39c-.51-.72-.84-1.09-1-1.09s-.9-.5-1.84-1.08-2-1.27-3-2.06L110,18.08c-.87-.65-1.3-1.12-1.3-1.41v-.44a6.79,6.79,0,0,1,.65-.54c.29-.22.43-.4.43-.54a.49.49,0,0,0-.11-.33.44.44,0,0,1-.11-.32.44.44,0,0,1-.32-.11.45.45,0,0,0-.33-.11c-.14.15-.5.47-1.08,1s-.94.76-1.09.76c-1.59.29-2.24.5-2,.65s.44.07.44-.22c-.15,0-.44-.25-.87-.76s-.87-1-1.3-1.63a20.7,20.7,0,0,1-1.2-1.73c-.36-.58-.62-.87-.76-.87l-4.56-1.3L90.27,6.68a5.66,5.66,0,0,1-5.1,1,24.15,24.15,0,0,0-6.4-.76A5.05,5.05,0,0,1,76,8.31a41.4,41.4,0,0,1-4.56.87,38.57,38.57,0,0,0-4.45.87c-1.37.36-2.13.83-2.27,1.41a8,8,0,0,1-2.93,3.15c-1.67,1.23-3,2.27-4,3.14a14,14,0,0,0-2.28,2.39c-.5.72-1,1.41-1.41,2.06s-.86,1.3-1.3,1.95a9.85,9.85,0,0,1-1.95,2.06q-3.69,8-6,13.24a81.71,81.71,0,0,0-3.58,9.66,55.53,55.53,0,0,0-1.84,8.79,85.87,85.87,0,0,0-.55,10.63,42.52,42.52,0,0,0,3.26,15.3,81.57,81.57,0,0,0,8.46,16.06,76.05,76.05,0,0,0,11.61,13.56,34.26,34.26,0,0,0,12.7,7.81,19.36,19.36,0,0,1,2.92.76c1.67.51,3.51,1.09,5.54,1.74s3.87,1.23,5.53,1.73,2.64.84,2.93,1h1.52a5.35,5.35,0,0,0,1.74-.65,5,5,0,0,1,1.73-.65H99a5.45,5.45,0,0,1,1.41.65,4.56,4.56,0,0,0,1.63.65,10.53,10.53,0,0,0,5.21-1.63,37.61,37.61,0,0,0,5.42-3.8,39.56,39.56,0,0,0,4.67-4.55c1.37-1.59,2.42-2.9,3.15-3.91v-4.77a15.56,15.56,0,0,1,.65-5.21,15,15,0,0,0,.65-5h-11.5c1.59-2,2.85-3.65,3.79-4.88s2.21-2.86,3.8-4.89c2.89-.57,4.34-.94,4.34-1.08,0-.44.4-.83,1.19-1.2s1.63-.72,2.5-1.08,1.7-.72,2.5-1.09,1.19-.68,1.19-1A2.91,2.91,0,0,1,130.63,80a9.37,9.37,0,0,1,2.5-1.41,21.72,21.72,0,0,1,2.82-.87,10.08,10.08,0,0,0,2.28-.76c.14-.14-.36-.32-1.52-.54s-1.66-.4-1.52-.54h1.09c.43,0,1.26-.54,2.49-1.63a41.7,41.7,0,0,0,3.58-3.58q1.74-2,3-3.36c.87-.94,1.23-1.27,1.09-1-1.31,2.6-2,7.13-2.17,13.56a158.51,158.51,0,0,0,1.08,21.27q1.31,11.61,3.58,23.22a123,123,0,0,0,5.32,19.64,8.19,8.19,0,0,1,.76,3.14c.07,1.23.14,2.5.21,3.8a18.74,18.74,0,0,0,.55,3.69,7.5,7.5,0,0,0,1.51,3V171.6a23.41,23.41,0,0,1-.32,3.26c-.22,1.44-.4,2.17-.54,2.17l-2.17,1.3a10.31,10.31,0,0,1,.21,2.61,14.81,14.81,0,0,1-.21,3,8.52,8.52,0,0,1-1.52,1.63c-.87.79-1.38,1.27-1.52,1.41v.87a51.09,51.09,0,0,1-5.64,5.64,27.55,27.55,0,0,1-5,3.26,44.32,44.32,0,0,1-5.86,2.38q-3.25,1.09-8,2.83a16.4,16.4,0,0,1-2.5.43,14.81,14.81,0,0,0-2.49.43h-2.17l-16.93-4.77q-1.74.43-4.12-1.19a13.71,13.71,0,0,0-4.12-2.07q-4.35-1.29-9.77-2.38t-11.18-2.06q-5.74-1-11.28-1.52t-10.09-.55c-1.45,0-2.71,0-3.8.11l-3.25.22a23.44,23.44,0,0,0-3.58.54c-1.3.29-2.82.65-4.56,1.09q-1.3.43-4.45,1.84T25.61,195c-2.47,1-4.78,2-6.95,2.93S15,199.6,14.1,200a33.07,33.07,0,0,0-7,4.56,10.84,10.84,0,0,1-7,2.82c0-.73.69-1.66,2.06-2.82S5,202.24,6.73,201s3.4-2.32,5-3.26,2.68-1.55,3.25-1.84q5.43-2.61,10.2-5t9.44-4.34q4.66-2,9.55-3.47A91.45,91.45,0,0,1,54.9,180.5,30.61,30.61,0,0,0,63.36,180.18ZM22.79,64.84c0,.43.14.58.43.43s.43-.28.43-.43a.69.69,0,0,0-.43-.65C22.93,64.05,22.79,64.26,22.79,64.84Zm2.82,42.53c0,.58.21.87.65.87q1.08,0,1.08-.87a1,1,0,0,0-1.08-1.08C25.82,106.29,25.61,106.65,25.61,107.37Zm3-58.59c0,.73.22,1.09.65,1.09s.66-.36.66-1.09-.22-1.3-.66-1.3S28.64,47.91,28.64,48.78Zm.87.87c0,.73.22,1.09.65,1.09s.65-.36.65-1.09-.21-1.3-.65-1.3S29.51,48.78,29.51,49.65ZM48,26.21c-.44,0-.58.15-.44.44s.29.43.44.43a.69.69,0,0,0,.65-.43C48.75,26.36,48.53,26.21,48,26.21Zm.76-7.92c-.8.95-.91,1.41-.33,1.41s1-.46,1.85-1.41.9-1.41.32-1.41S49.51,17.35,48.72,18.29Zm13.34-7c0,.73.29,1.09.87,1.09s.65-.36.65-1.09-.22-1.08-.65-1.08S62.06,10.52,62.06,11.24Zm2.17,171c0,.57.22.87.65.87a.87.87,0,0,0,0-1.74C64.45,181.37,64.23,181.66,64.23,182.24ZM77,127.77c0,.73.21,1.09.65,1.09s.65-.36.65-1.09-.22-1.3-.65-1.3S77,126.9,77,127.77Zm52.73,0c0,.73.21,1.09.65,1.09s.65-.36.65-1.09-.22-1.3-.65-1.3S129.77,126.9,129.77,127.77Zm7.48,54.79a11.94,11.94,0,0,0-.11,1.63l-2.38,1.95c0-.58.54-1.37,1.62-2.38a10.41,10.41,0,0,0,2.07-2.39C137.72,181.66,137.32,182.05,137.25,182.56Zm8.36,2.5c0,.72.21,1.08.65,1.08s.65-.36.65-1.08-.22-1.09-.65-1.09S145.61,184.33,145.61,185.06Z" transform="translate(0 -1.03)"/><path class="cls-3" d="M165.57,136.45a4.29,4.29,0,0,1,.54-1.19,4.34,4.34,0,0,0,.55-1.2,14.66,14.66,0,0,0-.55-2.38,13.94,13.94,0,0,1-.54-2.39V128.2c0-1.3.36-2,1.09-2.17-.73-.43-1.41-1.66-2.07-3.68a16.62,16.62,0,0,1-1-4.56,32.63,32.63,0,0,1,2.06-11.29,33.93,33.93,0,0,0,2.06-11.71,24,24,0,0,0-.54-5.64,21.89,21.89,0,0,1-.54-5.21,23.33,23.33,0,0,1,.21-3.37,7.94,7.94,0,0,1,1.74-3.36,1.67,1.67,0,0,1-1.19-1.41,15.12,15.12,0,0,1-.11-1.85,7,7,0,0,0-.22-1.84c-.15-.51-.58-.76-1.3-.76a18.57,18.57,0,0,0-8,1.74,18.56,18.56,0,0,1-8,1.73h-2.6a3.29,3.29,0,0,1-2.61-1.3c.58.15,1.7-.22,3.37-1.08s3.61-2,5.85-3.48,4.6-3,7.06-4.77,4.8-3.36,7-4.88,4.23-2.79,6-3.8A9.14,9.14,0,0,1,177.51,54a5.06,5.06,0,0,1,1.62.54l1.63.76c.58-.14.83-.07.76.22a1.89,1.89,0,0,1-.54.87,1.89,1.89,0,0,0-.54.87q-.12.44.75,0a2.41,2.41,0,0,0,1.41-1,3.08,3.08,0,0,1,1-1c.44.29.62.55.54.76a1.19,1.19,0,0,1-.21.44.4.4,0,0,0-.11.32h.87q-.87,3.48-1.31,5a13,13,0,0,0-.43,1.74,55.4,55.4,0,0,0,9.44-4Q197,57,201.7,54.75a72.37,72.37,0,0,1,9.77-3.91,35.93,35.93,0,0,1,10.95-1.62,20.74,20.74,0,0,1,5.32.65,20.26,20.26,0,0,0,5.1.65,10,10,0,0,0,1.09,4.56A10.52,10.52,0,0,1,235,59.85a22.55,22.55,0,0,1-5.21,14.21,78.58,78.58,0,0,1-11.28,11.72q-6.08,5.1-10.63,8.46t-3.26,4.45a141,141,0,0,1,11.83,10.64q7,6.94,15,15.19T247.71,141q8.34,8.24,15.73,14.75a116.5,116.5,0,0,0,13,10.2q5.64,3.69,8.46,2.39l18.45,7.81c.28,0,1.08,0,2.38-.11s2.68-.18,4.13-.32a39.87,39.87,0,0,1,4.12-.22h2.39a9.39,9.39,0,0,1,1.62.54,9.58,9.58,0,0,0,1.63.55h.87a7.72,7.72,0,0,0,4.88-2.07,5.93,5.93,0,0,1,4.88-1.62,6.38,6.38,0,0,0,.76-1.31c.36-.72.73-1.51,1.09-2.38s.68-1.74,1-2.61a6.88,6.88,0,0,0,.44-2,6.21,6.21,0,0,0-.33-1.52c-.21-.72-.18-1.23.11-1.52q3.46-5,6.4-9.11t6.19-4.12h.87c.28,1.73.46,3.11.54,4.12s.11,2.31.11,3.9q0,6.51-5.54,11.94a51.45,51.45,0,0,1-13.13,9.22,84,84,0,0,1-15.62,6,52.72,52.72,0,0,1-13,2.17h-4.77a5.93,5.93,0,0,1-2.07-1.19,5.77,5.77,0,0,0-2.06-1.2c-.14,0-.54,0-1.19.11a21.48,21.48,0,0,1-2.28.11h-3.47a116.28,116.28,0,0,1-20.72-9.77,260,260,0,0,1-21.81-14.21q-10.63-7.71-19.64-15.51a128.93,128.93,0,0,1-13.78-13.46q-1.51-1.72-4.23-4.34a17.82,17.82,0,0,0-4.67-3.47,8.17,8.17,0,0,1-3.47-2,30.93,30.93,0,0,1-2.49-2.82,15.34,15.34,0,0,0-2.61-2.61,5.71,5.71,0,0,0-3.58-1.08h-2.6a6.16,6.16,0,0,0-1.09,3.25v3.26a46.48,46.48,0,0,0,.54,7.16,46.47,46.47,0,0,1,.55,7.16v3.47q-4.12,3.25-8.14,6.51a14.24,14.24,0,0,1-9.22,3.26,10.88,10.88,0,0,0-.33-3c-.22-.72-.43-1.38-.65-1.95a14.49,14.49,0,0,1-.54-1.74,10,10,0,0,1-.22-2.39ZM184,90.77A15.27,15.27,0,0,0,185.75,97h3.47a19.48,19.48,0,0,0,6.84-1.09,30.17,30.17,0,0,0,5.53-2.71q2.61-1.64,5.32-3.58a36.89,36.89,0,0,1,6-3.47l3-8.25a22.44,22.44,0,0,0,1.52-7.81q0-12.81-11.28-12.8A17.83,17.83,0,0,0,197,59.63a24.33,24.33,0,0,0-7.17,6.4,30.47,30.47,0,0,0-4.66,9,32.58,32.58,0,0,0-1.63,10.2C183.58,86.25,183.72,88.1,184,90.77Z" transform="translate(0 -1.03)"/><path class="cls-3" d="M253,131.89a3.09,3.09,0,0,0,0-1.62,4.48,4.48,0,0,0-.65-1.09l-.87-1.08a2.58,2.58,0,0,1-.43-1.63,1.29,1.29,0,0,1,.32-.65c.22-.29.4-.44.54-.44-1.3-.43-2-1-2.06-1.84s-.11-1.77-.11-2.93a27.59,27.59,0,0,1,.66-3.69q.65-3,1.62-7.16c.65-2.75,1.45-5.6,2.39-8.57s1.88-5.61,2.82-7.92A28,28,0,0,1,260,88c.87-1.23,1.66-1.48,2.39-.76a14.87,14.87,0,0,1,1.74-4.66c1-2,2.09-3.94,3.25-6s2.17-4,3-5.86a11.46,11.46,0,0,0,1.3-4.34,12.17,12.17,0,0,0-.11-1.3.88.88,0,0,0-1-.87,25.56,25.56,0,0,0-9.77,2.06,26.92,26.92,0,0,1-10.41,2.06c-1.16,0-2.39,0-3.69-.11a3.63,3.63,0,0,1-3-1.84,8.93,8.93,0,0,0,3.9-2.17Q250,62.24,252.37,60a55.63,55.63,0,0,1,4.66-4,7,7,0,0,1,4-1.73,16.69,16.69,0,0,1,4.23.54,17.45,17.45,0,0,0,4.45.54,22,22,0,0,0,4.66-.76c2.1-.5,4.31-1.12,6.62-1.84s4.52-1.45,6.62-2.17,3.72-1.3,4.88-1.74c.29-.14.94-.5,2-1.08s1.66-.94,1.95-1.09h1.08l-6.29,7.6c-.58-.44-1.56.4-2.93,2.49s-2.93,4.81-4.66,8.14-3.58,7-5.54,11.18-3.69,8-5.21,11.71-2.78,6.91-3.79,9.66a23.59,23.59,0,0,0-1.52,5c0,1,.36,1.52,1.08,1.52s1.09.43,1.09,1.3a11.3,11.3,0,0,1-.54,3.58,15.22,15.22,0,0,0-.55,4.67,6.91,6.91,0,0,0,2.93,5.42A34.67,34.67,0,0,0,278,123c2.32,1.16,4.45,2.17,6.41,3s2.93,1.6,2.93,2.17a4.8,4.8,0,0,1-.11.76,4.59,4.59,0,0,0-.11,1,12.22,12.22,0,0,1-1.74,1.3c-.87.58-1.81,1.23-2.82,2s-1.95,1.41-2.82,2.06a8.11,8.11,0,0,1-1.95,1.19,10.57,10.57,0,0,1-2.61.43,5.3,5.3,0,0,0-2.6.66,11.32,11.32,0,0,0-2.06,2.17,12.88,12.88,0,0,1-2.06,2.17H268a11,11,0,0,1-4.23-.76,8.71,8.71,0,0,0-4.66-.33Zm-.87-5.2q0,1.08.87,1.08c.43,0,.65-.36.65-1.08,0-.87-.22-1.31-.65-1.31C252.44,125.38,252.15,125.82,252.15,126.69Zm1.09-66c0,.72.21,1.08.65,1.08s.87-.36.87-1.08-.3-1.09-.87-1.09S253.24,60,253.24,60.72Zm0,43c0,.73.21,1.09.65,1.09s.87-.36.87-1.09-.3-1.3-.87-1.3S253.24,102.82,253.24,103.68Zm5.2-46c0,.73.22,1.08.66,1.08a1,1,0,0,0,1.08-1.08c0-.87-.36-1.3-1.08-1.3C258.66,56.38,258.44,56.81,258.44,57.68Zm2.93-27.56a44.93,44.93,0,0,1,4.23-3.91h2a2.5,2.5,0,0,0,1-.54,2.74,2.74,0,0,1,1-.54,4,4,0,0,1,2.17,1.52,4.3,4.3,0,0,1,1.09,1.73v9.77c0,.43-.33.87-1,1.3a9.28,9.28,0,0,1-2.28,1.09,17.67,17.67,0,0,1-2.49.65,13.93,13.93,0,0,1-1.42.21,6.19,6.19,0,0,1-4.23-1.95,5.68,5.68,0,0,1-2.06-4.12A7.31,7.31,0,0,1,261.37,30.12Zm7.16-22.89a13.43,13.43,0,0,1,2.28-1.41c.87-.44,1.7-.9,2.5-1.41A5.88,5.88,0,0,0,274.94,3a2.69,2.69,0,0,0,.43-1,2.53,2.53,0,0,1,.43-1h.66A4.59,4.59,0,0,1,279,2.56,39.41,39.41,0,0,1,282.21,6,42.11,42.11,0,0,1,285,9.83a6.12,6.12,0,0,1,1.19,2.71,2.25,2.25,0,0,1-1,1.85,15.91,15.91,0,0,1-2.17,1.41,16.69,16.69,0,0,1-2.38,1.08c-.8.3-1.34.51-1.63.65h-.43c-3.77,0-6.55-.54-8.36-1.62s-2.71-3.51-2.71-7.27C267.56,8.2,267.88,7.74,268.53,7.23Zm.11,132.48a1,1,0,0,0,1.09,1.08c.43,0,.65-.36.65-1.08,0-.87-.22-1.31-.65-1.31C269,138.4,268.64,138.84,268.64,139.71Zm4.13-16.5a1,1,0,0,0,1.08,1.09c.43,0,.65-.36.65-1.09s-.22-1.08-.65-1.08A1,1,0,0,0,272.77,123.21Zm9.11-98.73,8.25-4.34c.43-.14.93.32,1.52,1.41a25.17,25.17,0,0,1,1.62,4q.76,2.4,1.41,4.78a14.92,14.92,0,0,1,.65,3.25c0,1-.86,1.92-2.6,2.72a11.33,11.33,0,0,1-3.47,1.19,5.66,5.66,0,0,1-3.58-1.09,7.87,7.87,0,0,1-2.28-2.82,12.63,12.63,0,0,1-1.19-3.79,24.22,24.22,0,0,1-.33-3.8Zm13.24,97.32a43.1,43.1,0,0,0,4.23-2.82c1.23-.94,2.46-1.91,3.69-2.93s2.71-2.31,4.45-3.9a4.59,4.59,0,0,1,1.62-1,9.22,9.22,0,0,1,1.63-.11h1.09l-2.07,2.06q-1.41,1.42-3.14,3t-3.15,3a15.88,15.88,0,0,1-2.06,1.84,37,37,0,0,1-7.49,5.21,18.39,18.39,0,0,1-3.58,1.52h-1.08v-2.39Q292.73,123.22,295.12,121.8Z" transform="translate(0 -1.03)"/><path class="cls-3" d="M322.24,198.08a5.23,5.23,0,0,1-1.74-2.71,5.26,5.26,0,0,0-1.73-2.72c-.15,0-.29-.4-.44-1.19s-.29-1.63-.43-2.5-.29-1.66-.44-2.38a11.56,11.56,0,0,1-.21-1.3c-1.16-1.6-1.88-2.57-2.17-2.93a3.35,3.35,0,0,0-.76-.76,8.83,8.83,0,0,0-1-.55,22.44,22.44,0,0,1-2.82-2.06,22.86,22.86,0,0,0-.65-4,22.78,22.78,0,0,1-.65-4,5.25,5.25,0,0,0-1.09-1.95,5.32,5.32,0,0,1-1.08-1.95,3.55,3.55,0,0,1-.22-1.74v-3.25c0-1,0-2,.11-3s.11-1.67.11-2-.08-.66-.22-1.52-.25-1.81-.32-2.82-.19-1.92-.33-2.72a12.09,12.09,0,0,1-.22-1.41,20.38,20.38,0,0,1,.22-2.06q.21-1.62.33-3.36c.07-1.16.18-2.21.32-3.15a17.19,17.19,0,0,0,.22-1.84V137.1c.14-.29.43-.79.87-1.52a3.74,3.74,0,0,0,.65-1.73,6.21,6.21,0,0,0-.33-1.52,7,7,0,0,1-.32-1.3,92.24,92.24,0,0,1,4.77-28.87q4.77-14.53,16.71-31.89a75.38,75.38,0,0,0-12.59,1.19,62.42,62.42,0,0,0-7.59,2c-1.88.65-3.26,1.16-4.12,1.52a2.07,2.07,0,0,1-2.17-.11A29.11,29.11,0,0,1,307.16,71q2.93-2.28,6.29-4.56a73.69,73.69,0,0,1,6.62-4,21.69,21.69,0,0,1,5.42-2.17,5.48,5.48,0,0,1,1.09-.65,20.67,20.67,0,0,1,2.06-.87c.79-.28,1.52-.57,2.17-.86a4.12,4.12,0,0,1,1.41-.44c2-.43,3.47-.76,4.34-1a41.71,41.71,0,0,0,4.12-1.41,9.39,9.39,0,0,0,1.2-.22l2.06-.44a10.31,10.31,0,0,1,1.95-.21,1.79,1.79,0,0,1,1.09.21,9.91,9.91,0,0,0-1.52,2.28A31.74,31.74,0,0,0,343.94,60a15.21,15.21,0,0,0-.87,2.71c-.14.73,0,.87.43.43,1.31-1,2.1-1.48,2.39-1.41s.4.33.33.76-.15.87-.22,1.31.25.58,1,.43c.29,0,.57-.33.86-1a4.85,4.85,0,0,0,.44-1.19,31.55,31.55,0,0,1,6.07-3.91,16,16,0,0,1,7.17-2.17L363.25,57h2.61a14.87,14.87,0,0,0,4.34-.54,13.89,13.89,0,0,1,4.12-.55h1.73a.92.92,0,0,1,.55.11,6.26,6.26,0,0,1,.43.65,5.44,5.44,0,0,0,1.63,1.41h.65a27,27,0,0,1,14,13.24A53.65,53.65,0,0,1,398.41,92a23.6,23.6,0,0,1-.44,4.44,45.14,45.14,0,0,1-1.08,4.45c-.44,1.45-.8,2.9-1.09,4.34a10.93,10.93,0,0,0,0,4.34,50.58,50.58,0,0,1-8.57,11.4,54.21,54.21,0,0,1-9.33,7.16,68,68,0,0,1-10.53,5.1q-5.64,2.16-12.15,5a5.33,5.33,0,0,0-3-.87c-.15,0-.33.14-.55.43s-.4.44-.54.44a4.67,4.67,0,0,1-2.06,1.3,8.34,8.34,0,0,1-2.06.65,16.49,16.49,0,0,1-9.44-5.43q-4.23-4.54-7.49-8.68c-.73.44-1.3,1.49-1.74,3.15a41,41,0,0,0-1,5.1,38.28,38.28,0,0,0-.33,4.77v3c0,.29,0,1.2-.11,2.72s-.1,3.14-.1,4.88,0,3.36-.11,4.88-.11,2.5-.11,2.93l.65,4.56c0,.57,0,1.41.11,2.49s.14,2.21.22,3.37.1,2.17.1,3v1.31l6.08,30.81q-.44,2.61,1.84,6.51t5,8.14q2.71,4.23,5.1,8.35a14.8,14.8,0,0,1,2.39,7.16,6.18,6.18,0,0,0,.65,2.5,25.71,25.71,0,0,0,1.31,2.49,8.07,8.07,0,0,1,.86,1.85c.14.5,0,.76-.43.76q-1.09,0-3.58-2.93t-5.64-7.38q-3.15-4.46-6.62-9.77t-6.3-10q-2.82-4.67-4.66-7.92a18.53,18.53,0,0,1-1.85-3.69A2.09,2.09,0,0,1,322.24,198.08Zm-12.8-53.38a1,1,0,0,0,1.08,1.08c.29,0,.43-.36.43-1.08s-.14-.87-.43-.87Q309.44,143.83,309.44,144.7Zm1.08,18,.43-1.09-.43-1.08ZM312,173.12c0,.73.14,1.09.43,1.09a1.09,1.09,0,1,0,0-2.17C312.18,172,312,172.4,312,173.12ZM320.29,95c0,.58.21.87.65.87q1.08,0,1.08-.87a1,1,0,0,0-1.08-1.08C320.5,93.92,320.29,94.28,320.29,95Zm5.86-3.25c0,.72.28,1.08.86,1.08s.87-.36.87-1.08c0-.87-.29-1.3-.87-1.3S326.15,90.88,326.15,91.75ZM331,115.4q-.12.66,1.41,1.74,6.29,5,12.48,9.22a24.18,24.18,0,0,0,14,4.23,20.53,20.53,0,0,0,9.88-2.17,17.77,17.77,0,0,0,6.51-6,27.47,27.47,0,0,0,3.68-8.68,42,42,0,0,0,1.2-10.09V95.87a8.14,8.14,0,0,1-.87-1.84,8.34,8.34,0,0,1-.65-2.06V90.45a4.16,4.16,0,0,0-.54-1.2,4,4,0,0,1-.55-1.19,3.35,3.35,0,0,1,.55-1.09,3.25,3.25,0,0,0,.54-1.08v-.65a9.92,9.92,0,0,0-1.3-4.78A11.09,11.09,0,0,1,376.05,75,5.17,5.17,0,0,1,373.56,74a21.07,21.07,0,0,1-3.26-2.71,31.45,31.45,0,0,1-2.93-3.36,5.59,5.59,0,0,1-1.3-3.26,27.41,27.41,0,0,1-2.93-.21c-1.23-.15-2.57-.33-4-.55a29.24,29.24,0,0,1-4-.86c-1.23-.36-2.2-.69-2.92-1a2.44,2.44,0,0,1-.76,1.95,5.15,5.15,0,0,1-1.74,1c-.65.22-1.3.47-1.95.76a4,4,0,0,0-1.63,1.3A44.7,44.7,0,0,0,337,81.66a63.6,63.6,0,0,0-3.47,17.68c-.43,2.47-.94,4.74-1.52,6.84a24.77,24.77,0,0,0-.86,6.62A19.86,19.86,0,0,1,331,115.4Zm10.3,109.8a2.49,2.49,0,0,0-2.82-2.82A2.49,2.49,0,0,0,341.33,225.2Zm8-93.52a1,1,0,0,0,1.09,1.08c.29,0,.43-.36.43-1.08s-.14-1.09-.43-1.09A1,1,0,0,0,349.36,131.68Zm3-70.53a.87.87,0,1,0,.87-.87A.77.77,0,0,0,352.4,61.15Zm14.11,70.53c0,.72.21,1.08.65,1.08s.65-.36.65-1.08-.22-1.09-.65-1.09S366.51,131,366.51,131.68Zm13.89-26.26c0,.73.28,1.08.86,1.08s.87-.35.87-1.08-.29-1.3-.87-1.3S380.4,104.55,380.4,105.42Z" transform="translate(0 -1.03)"/></g></g></svg>