<?xml version="1.0" encoding="UTF-8" standalone="no"?>
<!-- Created with Inkscape (http://www.inkscape.org/) -->

<svg
   xmlns:dc="http://purl.org/dc/elements/1.1/"
   xmlns:cc="http://creativecommons.org/ns#"
   xmlns:rdf="http://www.w3.org/1999/02/22-rdf-syntax-ns#"
   xmlns:svg="http://www.w3.org/2000/svg"
   xmlns="http://www.w3.org/2000/svg"
   xmlns:sodipodi="http://sodipodi.sourceforge.net/DTD/sodipodi-0.dtd"
   xmlns:inkscape="http://www.inkscape.org/namespaces/inkscape"
   version="1.0"
   width="220"
   height="220"
   id="svg40147"
   sodipodi:docname="gripen.svg"
   inkscape:version="0.92.5 (2060ec1f9f, 2020-04-08)"
   inkscape:export-filename="/home/jrei/Downloads/gripen.png"
   inkscape:export-xdpi="405"
   inkscape:export-ydpi="405">
  <sodipodi:namedview
     pagecolor="#ffffff"
     bordercolor="#666666"
     borderopacity="1"
     objecttolerance="10"
     gridtolerance="10"
     guidetolerance="10"
     inkscape:pageopacity="0"
     inkscape:pageshadow="2"
     inkscape:window-width="1872"
     inkscape:window-height="1043"
     id="namedview2911"
     showgrid="false"
     inkscape:zoom="2.0075454"
     inkscape:cx="-34.827099"
     inkscape:cy="101.96387"
     inkscape:window-x="48"
     inkscape:window-y="0"
     inkscape:window-maximized="1"
     inkscape:current-layer="Avslitet-Griphuvud" />
  <defs
     id="defs40149" />
  <metadata
     id="metadata1880">
    <rdf:RDF>
      <cc:Work
         rdf:about="">
        <dc:title>Skanska dragonregementet vapen</dc:title>
        <dc:date>2009-01-14</dc:date>
        <dc:creator>
          <cc:Agent>
            <dc:title>Lokal_Profil</dc:title>
          </cc:Agent>
        </dc:creator>
        <cc:license
           rdf:resource="http://creativecommons.org/licenses/by-sa/2.5/" />
        <dc:rights>
          <cc:Agent>
            <dc:title>cc-by-sa-2.5</dc:title>
          </cc:Agent>
        </dc:rights>
        <dc:format>image/svg+xml</dc:format>
        <dc:type
           rdf:resource="http://purl.org/dc/dcmitype/StillImage" />
      </cc:Work>
      <cc:License
         rdf:about="http://creativecommons.org/licenses/by-sa/2.5/">
        <cc:permits
           rdf:resource="http://web.resource.org/cc/Reproduction" />
        <cc:permits
           rdf:resource="http://web.resource.org/cc/Distribution" />
        <cc:requires
           rdf:resource="http://web.resource.org/cc/Notice" />
        <cc:requires
           rdf:resource="http://web.resource.org/cc/Attribution" />
        <cc:permits
           rdf:resource="http://web.resource.org/cc/DerivativeWorks" />
        <cc:requires
           rdf:resource="http://web.resource.org/cc/ShareAlike" />
      </cc:License>
    </rdf:RDF>
  </metadata>
  <g
     transform="matrix(1.000002,0,0,1,6.5720149,-76.9)"
     id="Avslitet-Griphuvud"
     style="fill:#000000">
    <path
       d="m 111.42685,292.24795 c 3.78802,-5.52299 6.35848,-12.9782 7.08881,-20.55995 0.61986,-6.43492 0.0924,-11.7203 -3.54695,-35.54257 -1.17587,-7.69696 -0.50444,-19.69805 1.47393,-26.34466 1.3614,-4.5738 0.99844,-20.67526 -0.46606,-20.67526 -0.43261,0 -2.0924,1.22499 -3.68842,2.72221 -1.59601,1.49721 -4.48282,3.83583 -6.41512,5.19694 -12.413056,20.43469 -11.097436,27.23317 -10.332666,42.94204 0.28771,10.71094 3.621577,13.99508 6.626656,21.89594 4.52828,11.9056 6.53961,25.79194 4.69184,32.39262 -1.05481,3.76807 1.31428,2.71664 4.56798,-2.02731 z"
       id="path1955"
       inkscape:connector-curvature="0"
       sodipodi:nodetypes="ssssssccccs"
       style="fill:#ff9b00" />
    <path
       d="m 72.556329,287.86733 c 8.856525,-6.78807 14.587565,-19.7729 16.711555,-37.8634 1.61763,-13.77764 3.95625,-28.33018 4.9314,-30.68668 1.73735,-4.19835 5.771817,-17.83868 5.392987,-18.23342 -0.80486,-0.83864 -10.879127,4.46868 -14.300947,7.53404 -4.115227,3.68652 -10.899902,17.28496 -13.743181,27.54528 -2.365626,8.53664 -3.185179,17.40349 -3.383652,36.60831 -0.08441,8.16662 -0.533681,15.62794 -0.998396,16.58071 -1.300175,2.66564 0.69047,2.11728 5.390234,-1.48484 z"
       id="path1953"
       inkscape:connector-curvature="0"
       style="fill:#ff5400" />
    <path
       d="m 146.7143,288.26823 c 0,-0.46007 -0.86201,-1.61659 -1.91557,-2.57004 -9.85775,-12.94998 -9.3739,-30.1971 -9.43844,-39.65384 0.3333,-28.38609 -7.82125,-21.17091 -13.45548,-31.72793 -4.63171,-9.57766 -4.62926,-5.58328 -5.5709,6.62761 -0.61461,7.97014 2.25133,30.62914 5.18434,40.98897 2.29972,8.12295 7.07654,15.88058 12.63614,20.52127 6.56339,5.47857 12.55991,8.25435 12.55991,5.81396 z"
       id="path1951"
       inkscape:connector-curvature="0"
       sodipodi:nodetypes="scccssss"
       style="fill:#ff3800" />
    <path
       d="m 36.064491,267.822 c 16.306446,-9.2953 42.097399,-39.46926 39.994475,-58.61164 -0.312994,-0.31298 -15.295569,6.02227 -24.44115,13.19958 -12.411323,12.56028 -9.292811,30.02561 -17.46851,42.16671 -2.877749,4.20391 -5.225706,8.4357 -5.217678,9.40399 0.01092,1.31749 0.327407,1.13777 1.257688,-0.71423 0.6837,-1.3611 3.327527,-3.81109 5.875175,-5.44441 z"
       id="path1949"
       inkscape:connector-curvature="0"
       sodipodi:nodetypes="ccccscc"
       style="fill:#ff9b00" />
    <path
       d="m 171.454,265.48643 c -0.004,-0.34875 -1.76572,-1.63801 -3.91451,-2.86499 -12.7644,-8.78349 -16.65661,-33.54853 -18.37945,-45.28398 -0.30762,-2.17776 -1.627,-7.52319 -2.93194,-11.87871 -1.30494,-4.35553 -2.66689,-9.57372 -3.02654,-11.59598 -0.90761,-5.10317 -3.12734,-6.83719 -3.95853,-3.0923 -1.14153,5.14322 -3.66785,12.66641 -5.43885,16.19653 -1.48525,2.96051 -1.5631,3.93363 -0.51478,6.4343 0.67932,1.62044 1.79126,6.06443 2.47098,9.87552 1.70541,9.56184 3.93421,15.61072 8.94283,24.27041 7.10297,12.28075 16.3392,19.78971 23.33699,18.97276 1.88178,-0.21968 3.41799,-0.68479 3.4138,-1.03356 z"
       id="path1947"
       inkscape:connector-curvature="0"
       style="fill:#ff9b00"
       sodipodi:nodetypes="cccscccccscc" />
    <path
       d="m 185.32012,245.56827 c 0,-0.53407 -1.11639,-1.25123 -2.48087,-1.59369 -21.12978,-10.19816 -17.84767,-47.24349 -27.63039,-57.7568 -1.13314,-1.02627 -4.63077,-4.35549 -7.7725,-7.39825 -3.14174,-3.04276 -6.0473,-5.5323 -6.4568,-5.5323 -1.28432,0 0.32956,12.18508 2.1633,16.33323 2.57544,5.82593 6.60876,19.75114 8.10807,27.99349 2.29824,12.63442 9.79784,22.83909 19.71575,26.82716 5.17371,2.0804 14.35344,2.80127 14.35344,1.12716 z"
       id="path1945"
       inkscape:connector-curvature="0"
       style="fill:#ff6200"
       sodipodi:nodetypes="scccscscs" />
    <path
       d="m 41.525503,231.16439 c 4.706495,-8.54546 10.735992,-13.50795 22.472133,-18.49533 9.75977,-4.14752 10.197787,-4.4777 21.838248,-16.46164 6.53329,-6.72608 13.140467,-14.41198 14.682616,-17.07977 2.94282,-5.09082 2.67191,-6.14197 -0.760319,-2.95 -10.668617,9.10293 -24.794573,9.80174 -35.845953,15.02101 -23.901324,9.94202 -24.381951,36.46853 -35.121412,49.85054 -2.120191,2.64189 -2.728848,2.52042 -1.016581,2.52042 6.1111,-1.84644 10.814077,-7.17942 13.751268,-12.40523 z"
       id="path1943"
       inkscape:connector-curvature="0"
       sodipodi:nodetypes="ccssccssc"
       style="fill:#ff3800" />
    <path
       d="m 138.54263,174.3847 c -0.4542,-6.62677 -1.72271,-12.23574 -5.77107,-20.44543 -2.59261,-5.2576 -4.87799,-7.88621 -5.29388,-7.88621 -4.82169,0.19639 -6.21026,17.16491 -6.96734,24.75943 -2.41139,25.53024 -2.23623,31.76553 1.11233,39.59572 2.10384,4.91956 4.67,8.34291 5.65576,7.73368 6.87851,-9.04522 11.83339,-34.29283 11.2642,-43.75719 z"
       id="path1941"
       inkscape:connector-curvature="0"
       sodipodi:nodetypes="ccccscc"
       style="fill:#ff3800" />
    <path
       d="m 94.444404,201.38074 c 19.650266,-11.28358 23.112336,-14.97 24.454306,-27.46056 6.70379,-30.95209 -8.30445,-10.32535 -16.68106,5.07673 -1.76688,3.41965 -6.740426,9.60713 -12.517746,15.57301 -8.922447,9.21366 -12.278113,14.07474 -12.278113,17.78628 0,0.83415 0.445452,1.51663 0.989893,1.51663 6.13719,-8.32688 8.55016,-8.21582 16.03272,-12.49209 z"
       id="path1939"
       inkscape:connector-curvature="0"
       sodipodi:nodetypes="cccsscc"
       style="fill:#ff6200" />
    <path
       d="m 174.4313,195.25007 c -6.66112,-7.51161 -10.87267,-15.85389 -13.29573,-22.45779 -5.09794,-13.98283 -10.67411,-24.23194 -13.19116,-24.24562 -6.90662,-3.89377 -11.02751,-5.59617 -16.00019,-11.94992 -2.95136,-3.77104 -5.49125,-6.7313 -5.64419,-6.57835 -0.99179,0.99178 3.3651,16.13877 6.30758,21.92876 1.95284,3.84265 4.56155,9.00819 5.79712,11.47898 2.29447,4.58826 9.22055,13.1716 12.70775,15.74845 1.06647,0.78806 4.65707,4.12895 7.97911,7.4242 6.99814,6.9417 15.33971,11.64619 15.33971,8.65129 z"
       id="path1937"
       inkscape:connector-curvature="0"
       style="fill:#ff6200"
       sodipodi:nodetypes="cccscsccsc" />
    <path
       d="m 111.94056,162.55625 c 6.49504,-9.91426 20.81852,-22.08145 6.28538,-45.85038 -2.4983,-4.02444 -20.240689,-19.235113 -21.899566,-19.235113 -6.31986,7.809203 -11.12832,2.615053 -9.68883,-3.29057 -18.81686,-2.626778 -22.018303,-5.511174 -30.518228,-5.480754 -4.237168,0.04096 -5.790517,0.654745 -10.543914,4.166291 -8.614988,6.364263 -10.734864,14.362976 -6.154204,23.220976 1.755041,3.39388 2.77574,6.01451 4.977123,4.04576 23.570328,-20.630231 63.715929,14.35223 62.660709,26.53527 1.70255,5.05825 -4.25321,29.53115 4.88153,15.88852 z"
       id="path5792"
       inkscape:connector-curvature="0"
       sodipodi:nodetypes="cccccccccc"
       style="fill:#ff9b00" />
    <path
       d="m 181.24524,150.51971 c -16.80079,-6.46873 -30.00978,-27.48383 -45.66884,-34.2259 -12.67129,-0.12938 -22.00862,-8.55179 -15.57929,0.29846 5.98559,8.23941 10.48436,15.74999 15.01045,19.61676 9.44305,10.30422 21.64951,11.26463 34.47428,14.26348 4.92181,1.19077 11.7634,1.21992 11.7634,0.0472 z"
       id="path1929"
       inkscape:connector-curvature="0"
       style="fill:#ff6200"
       sodipodi:nodetypes="ccscccc" />
    <path
       d="m 125.40603,112.89213 c 14.38519,2.91096 35.34631,-0.72905 41.79205,-13.460113 0,0 0.42068,-2.37041 -0.9334,-1.57825 -4.63174,2.792533 -13.04043,4.504523 -18.7837,3.824313 -4.3459,-0.5147 -7.62775,-1.687171 -16.27258,-5.813473 -16.76668,-7.62942 -13.32421,-5.910792 -17.71859,-8.49903 -8.1863,-4.66589 -16.279536,-7.465099 -26.169086,-9.051116 -9.382288,-1.504666 -14.424882,-0.427265 -19.359725,1.961654 -18.537391,10.198555 9.134953,8.260547 26.401495,13.160362 20.537906,9.866353 17.517286,14.090573 31.043536,19.455643 z"
       id="path1927"
       inkscape:connector-curvature="0"
       sodipodi:nodetypes="cccsccscccc"
       style="fill:#ff3800" />
  </g>
</svg>
